/vscmnt/brussel_pixiu_data/_data_brussel/112/vsc11236/PredSimResults/SUBJ11mtu3D/worker4.mot
version=1
nRows=10
nColumns=50
inDegrees=yes
endheader
                time	         pelvis_tilt	         pelvis_list	     pelvis_rotation	           pelvis_tx	           pelvis_ty	           pelvis_tz	       hip_flexion_r	     hip_adduction_r	      hip_rotation_r	        knee_angle_r	       ankle_angle_r	         mtp_angle_r	       hip_flexion_l	     hip_adduction_l	      hip_rotation_l	        knee_angle_l	       ankle_angle_l	         mtp_angle_l	    lumbar_extension	      lumbar_bending	     lumbar_rotation	 ercspn_r/activation	 intobl_r/activation	 extobl_r/activation	    abd_r/activation	    add_r/activation	hamstrings_r/activation	bifemsh_r/activation	glut_max_r/activation	iliopsoas_r/activation	rect_fem_r/activation	  vasti_r/activation	gastroc_r/activation	 soleus_r/activation	tib_ant_r/activation	 ercspn_l/activation	 intobl_l/activation	 extobl_l/activation	    abd_l/activation	    add_l/activation	hamstrings_l/activation	bifemsh_l/activation	glut_max_l/activation	iliopsoas_l/activation	rect_fem_l/activation	  vasti_l/activation	gastroc_l/activation	 soleus_l/activation	tib_ant_l/activation	
          2.02138030	         -3.27292899	          1.01402013	         -5.53724602	          2.22351833	          0.93989323	          0.00511624	        -14.21081588	         -3.09190554	         -2.60499905	        -11.96535330	         11.86163439	         30.16937139	         31.37140880	         -1.92544997	         -4.69000493	         -9.98641279	          1.56659177	          0.26334852	        -14.24016940	          1.76874247	          3.36564364	          0.01213724	          0.01000006	          0.01000004	          0.03372571	          0.03989577	          0.01394723	          0.19070793	          0.01966576	          0.14406347	          0.01224574	          0.01000013	          0.13424558	          0.29712974	          0.01224608	          0.02895326	          0.21485883	          0.05595528	          0.01000000	          0.21639462	          0.03590958	          0.13339526	          0.08974143	          0.08695089	          0.03695011	          0.01224606	          0.01000006	          0.01000000	          0.42251120	
          2.03485617	         -3.37600210	          1.07120826	         -5.63756878	          2.24237815	          0.93789234	          0.00399614	        -14.76494011	         -3.35181351	         -2.92230731	        -12.75907607	         10.94385671	         32.01540681	         31.06080898	         -1.77804286	         -4.78816599	        -11.18976433	          1.06696860	          0.21420146	        -13.78753901	          1.26421469	          3.58346504	          0.01958096	          0.01000002	          0.01000016	          0.02754024	          0.03257872	          0.01287196	          0.15573114	          0.01605897	          0.11764159	          0.01000010	          0.01000008	          0.10962423	          0.27276234	          0.01000009	          0.02364313	          0.17545260	          0.04569279	          0.05214711	          0.19424360	          0.05215198	          0.10892990	          0.10955518	          0.07100363	          0.03017329	          0.01000008	          0.01224600	          0.01224596	          0.47325288	
          2.04833204	         -3.45912222	          1.12384555	         -5.71035290	          2.26145734	          0.93629834	          0.00279942	        -15.12915891	         -3.62073579	         -3.24958874	        -13.91591153	          9.86365418	         33.92238296	         30.73498984	         -1.65062767	         -4.92510798	        -12.41902953	          0.43081860	          0.20503330	        -13.32346686	          0.76171948	          3.78926613	          0.04018761	          0.01000001	          0.01000005	          0.02248921	          0.02660366	          0.01051123	          0.12716927	          0.01311368	          0.09674615	          0.01000048	          0.01000009	          0.08951856	          0.24622884	          0.01000000	          0.03182449	          0.14327366	          0.03731249	          0.09834859	          0.23673154	          0.04258711	          0.08895161	          0.13123974	          0.05798119	          0.02463938	          0.01007503	          0.01000004	          0.01000000	          0.54209249	
          2.06180790	         -3.52147067	          1.16447114	         -5.75295891	          2.28048238	          0.93527888	          0.00152656	        -15.20789145	         -3.89399495	         -3.58171723	        -15.56728328	          8.60816526	         35.85574523	         30.52590229	         -1.54881132	         -5.11924943	        -13.85621624	         -0.24842113	          0.16076257	        -12.88047630	          0.27156561	          3.97778112	          0.06831781	          0.01000002	          0.01000003	          0.01836457	          0.07911198	          0.01353148	          0.10384580	          0.01070858	          0.07900276	          0.01000014	          0.01000007	          0.07310038	          0.20787730	          0.01000000	          0.03763098	          0.11699651	          0.03046918	          0.12843715	          0.28665413	          0.04558440	          0.07263745	          0.11909996	          0.04734713	          0.02012041	          0.07191404	          0.01000003	          0.01000001	          0.59127257	
          2.07528377	         -3.56391038	          1.19274550	         -5.76742599	          2.29933384	          0.93493668	          0.00019821	        -14.92398215	         -4.17513236	         -3.91848793	        -17.82689853	          7.18528236	         37.69744349	         30.36636934	         -1.45963320	         -5.31959469	        -15.44668522	         -0.61918536	          0.10432952	        -12.46704368	         -0.20490338	          4.14688419	          0.09579903	          0.01000002	          0.01000004	          0.01499641	          0.14537898	          0.01514397	          0.08480002	          0.01000001	          0.06451351	          0.01000007	          0.01000001	          0.05969338	          0.16975149	          0.01000000	          0.03072953	          0.09553872	          0.02488097	          0.15211556	          0.31111217	          0.04727902	          0.05931541	          0.13463733	          0.03866341	          0.01643025	          0.12665158	          0.01000004	          0.01000001	          0.59819237	
          2.08875964	         -3.58919151	          1.20951214	         -5.75118119	          2.31783763	          0.93539394	         -0.00115305	        -14.20012529	         -4.46749244	         -4.27283841	        -20.79052274	          5.59727330	         39.24356371	         30.17544993	         -1.36619214	         -5.47814607	        -17.05814303	         -0.54412802	          0.05296672	        -12.09775106	         -0.67000943	          4.29051016	          0.11523138	          0.01000003	          0.01000005	          0.01224599	          0.18666233	          0.03281759	          0.06924766	          0.01000000	          0.05268148	          0.01000002	          0.01000000	          0.04874529	          0.13861816	          0.01000002	          0.02509365	          0.07801641	          0.02031767	          0.16296295	          0.32750383	          0.04752796	          0.04843671	          0.14302435	          0.03157234	          0.01341689	          0.14960908	          0.01000003	          0.01000000	          0.55766657	
          2.10223551	         -3.59902730	          1.20889259	         -5.70187811	          2.33586821	          0.93666307	         -0.00248859	        -12.99877477	         -4.77310724	         -4.68168612	        -24.51344986	          4.00301437	         39.94542395	         29.90509526	         -1.26535801	         -5.56859321	        -18.58674998	         -0.05210921	          0.03482248	        -11.78234412	         -1.12012813	          4.40415234	          0.11959218	          0.01000006	          0.01000004	          0.01000001	          0.22743030	          0.03551440	          0.05654749	          0.01000000	          0.04301946	          0.01000002	          0.01000000	          0.03980515	          0.11319485	          0.01000000	          0.02049138	          0.06370779	          0.01659130	          0.16797194	          0.33770015	          0.05252226	          0.03955328	          0.13267347	          0.02578180	          0.01095621	          0.17575687	          0.01000003	          0.01000000	          0.47613796	
          2.11571138	         -3.59525755	          1.17681099	         -5.61508267	          2.35338581	          0.93870989	         -0.00377147	        -11.32605608	         -5.09165181	         -5.14632431	        -28.95504181	          2.36850381	         39.58600887	         29.47432913	         -1.16054791	         -5.57229269	        -19.86123163	          0.73966309	          0.11839030	        -11.52241898	         -1.54290337	          4.48309548	          0.10398784	          0.01000004	          0.01824612	          0.01000000	          0.27607466	          0.03473690	          0.05233816	          0.01000000	          0.03512949	          0.01000001	          0.00999999	          0.03250467	          0.09243430	          0.01000000	          0.01673317	          0.05202344	          0.01354837	          0.16491431	          0.31592529	          0.05570878	          0.03229919	          0.11043953	          0.02105328	          0.01000010	          0.21883895	          0.01000005	          0.01000001	          0.39099631	
          2.12918725	         -3.58097835	          1.09489014	         -5.48197385	          2.37036504	          0.94149470	         -0.00496831	         -9.23671202	         -5.41152488	         -5.65495860	        -33.91767606	          0.45186207	         38.31549852	         28.79432067	         -1.06415496	         -5.49410418	        -20.67836157	          1.59368567	          0.33026667	        -11.32127967	         -1.92164452	          4.52165521	          0.08532106	          0.01558620	          0.04800202	          0.01000000	          0.29916970	          0.02836600	          0.06183942	          0.01000000	          0.02868659	          0.01000001	          0.00999999	          0.02654314	          0.07548136	          0.01000007	          0.01366426	          0.04248207	          0.01106354	          0.14263068	          0.27414526	          0.06000295	          0.02637568	          0.09018435	          0.01719200	          0.01000007	          0.24261193	          0.01000003	          0.01000000	          0.32572073	
          2.14266312	         -3.55858464	          0.94826730	         -5.29920961	          2.38677374	          0.94490121	         -0.00608152	         -6.81627310	         -5.72145023	         -6.16225585	        -39.17050761	         -1.74867553	         36.01621111	         27.86792173	         -0.99713082	         -5.34610200	        -21.01128493	          2.36417544	          0.62383610	        -11.18657550	         -2.23640245	          4.52353063	          0.10121392	          0.04864509	          0.09204064	          0.00999999	          0.24430041	          0.02316353	          0.05722442	          0.01000000	          0.02342539	          0.01000001	          0.00999999	          0.02167499	          0.06163767	          0.05068779	          0.01115827	          0.03469064	          0.01000002	          0.11917756	          0.22386564	          0.05592603	          0.02153830	          0.07364409	          0.01403890	          0.01000008	          0.24567352	          0.01000003	          0.01000000	          0.28008814	
